<svg xmlns="http://www.w3.org/2000/svg" viewBox="0 0 20.36 16"><defs><style>.cls-1{fill:#dddcdc}</style></defs><g id="Layer_2" data-name="Layer 2"><g id="wireframe"><path class="cls-1" d="M2 4.93l2.28 1.62 3 2.07.46.38.62.43c.16.11.36.24.59.37a3.44 3.44 0 0 0 .65.31 1.8 1.8 0 0 0 .57.1 1.71 1.71 0 0 0 .57-.1 3.17 3.17 0 0 0 .65-.31c.24-.13.43-.26.6-.37l.63-.43.48-.35 5.32-3.69a5.29 5.29 0 0 0 1.39-1.4 3 3 0 0 0 .55-1.71 1.76 1.76 0 0 0-.54-1.32A1.76 1.76 0 0 0 18.55 0H1.82A1.64 1.64 0 0 0 .47.59 2.32 2.32 0 0 0 0 2.07a2.64 2.64 0 0 0 .63 1.55A5.45 5.45 0 0 0 2 4.93z"/><path class="cls-1" d="M19.23 6.15c-2.49 1.68-4.37 3-5.66 3.92-.43.32-.78.56-1.05.74a6.67 6.67 0 0 1-1.08.55 3.34 3.34 0 0 1-1.25.28 3.38 3.38 0 0 1-1.25-.28 6.52 6.52 0 0 1-1.07-.55c-.27-.18-.62-.42-1-.74Q5.25 8.95 1.15 6.15A6.12 6.12 0 0 1 0 5.16v9A1.81 1.81 0 0 0 1.82 16h16.73a1.81 1.81 0 0 0 1.81-1.82v-9a6.42 6.42 0 0 1-1.13.97z"/></g></g></svg>