<?xml version="1.0" encoding="utf-8"?>
<!-- Generator: Adobe Illustrator 25.4.1, SVG Export Plug-In . SVG Version: 6.00 Build 0)  -->
<svg version="1.1" id="thenextweb" xmlns="http://www.w3.org/2000/svg" xmlns:xlink="http://www.w3.org/1999/xlink" x="0px" y="0px"
	 viewBox="0 0 165 40" style="enable-background:new 0 0 165 40;" xml:space="preserve">
<g>
	<path d="M72.5,4.4C69.7,1.6,65.9,0,61.9,0H40v40h15V15h4.8c1.3,0,2.6,0.5,3.5,1.5l5.2,5.2c0.9,0.9,1.5,2.2,1.5,3.5V40h15V23.1
		c0-4-1.6-7.8-4.4-10.6L72.5,4.4z"/>
	<path d="M150,0v14.8c0,1.3-0.5,2.6-1.5,3.5l-5.2,5.2c-0.9,0.9-2.2,1.5-3.5,1.5H135h-2.4c1.5-2.4,2.4-5.2,2.4-8.1V0h-15v14.8
		c0,1.3-0.5,2.6-1.5,3.5l-5.2,5.2c-0.9,0.9-2.2,1.5-3.5,1.5H105V0H90v40h21.9c4,0,7.8-1.6,10.6-4.4l5-5V40h14.4
		c4,0,7.8-1.6,10.6-4.4l8.1-8.1c2.8-2.8,4.4-6.6,4.4-10.6V0H150z"/>
	<polygon points="0,15 10,15 10,40 25,40 25,15 35,15 35,0 0,0 	"/>
</g>
</svg>
